<?xml version="1.0" standalone="no"?>
<!DOCTYPE svg PUBLIC "-//W3C//DTD SVG 20010904//EN"
 "http://www.w3.org/TR/2001/REC-SVG-20010904/DTD/svg10.dtd">
<svg version="1.0" xmlns="http://www.w3.org/2000/svg"
 width="1018.000000pt" height="1018.000000pt" viewBox="0 0 1018.000000 1018.000000"
 preserveAspectRatio="xMidYMid meet">
<metadata>
Created by potrace 1.14, written by Peter Selinger 2001-2017
</metadata>
<g transform="translate(0.000000,1018.000000) scale(0.100000,-0.100000)"
fill="#000000" stroke="none">
<path d="M0 5090 l0 -5090 5090 0 5090 0 0 5090 0 5090 -5090 0 -5090 0 0
-5090z m7069 2646 c354 -91 614 -423 765 -978 60 -220 121 -592 145 -886 9
-104 12 -119 44 -170 116 -189 203 -413 249 -642 29 -140 31 -419 5 -560 -85
-455 -378 -878 -814 -1170 -383 -256 -816 -408 -1318 -461 -166 -17 -514 -15
-685 5 -340 40 -662 123 -969 250 -64 27 -124 46 -135 43 -12 -3 -70 -24 -130
-47 -254 -97 -423 -88 -511 28 -18 23 -39 65 -45 94 -16 65 -7 184 19 260 l19
56 -21 19 c-12 11 -51 42 -87 69 -347 260 -783 729 -1015 1091 -34 54 -47 65
-87 79 -69 23 -157 83 -211 145 -59 66 -138 225 -171 339 -27 95 -53 257 -62
382 -4 70 -3 87 13 110 21 30 433 282 898 548 1162 666 1880 969 2300 970 110
0 238 -34 306 -82 13 -9 27 -2 75 32 183 136 523 326 722 404 248 97 501 123
701 72z"/>
<path d="M6715 7483 c-214 -30 -518 -174 -871 -415 l-131 -89 -6 -127 c-6
-152 -42 -289 -132 -502 -118 -280 -368 -737 -673 -1230 -478 -774 -666 -1089
-800 -1341 l-62 -116 118 -70 c64 -39 137 -81 161 -93 53 -27 40 -32 276 103
569 324 1534 991 2719 1880 l399 299 -7 92 c-18 233 -63 528 -111 726 -85 345
-199 586 -344 727 -70 68 -190 135 -269 152 -51 10 -203 13 -267 4z"/>
<path d="M5080 7020 c-491 -107 -1271 -485 -2413 -1167 l-308 -184 91 -177
c50 -97 126 -235 168 -305 l77 -128 40 7 c173 29 420 163 720 389 203 153 350
275 690 570 532 462 749 647 968 827 119 99 217 181 217 184 0 11 -175 0 -250
-16z"/>
<path d="M5199 6573 c-238 -199 -382 -322 -735 -628 -511 -445 -609 -526 -850
-708 -249 -188 -527 -349 -694 -402 -30 -10 -57 -19 -58 -21 -6 -5 172 -235
273 -354 140 -163 391 -410 536 -526 68 -55 129 -103 136 -107 7 -5 34 36 76
115 85 161 274 486 422 723 380 611 652 1065 803 1340 107 196 229 464 279
613 25 74 43 136 40 138 -2 3 -105 -80 -228 -183z"/>
<path d="M7509 5292 c-1158 -869 -2150 -1559 -2686 -1870 -73 -42 -133 -80
-133 -83 0 -19 348 -119 551 -159 266 -51 625 -68 890 -42 321 33 678 137 949
278 549 286 876 705 940 1208 31 240 -24 529 -150 794 -27 56 -50 102 -53 102
-2 0 -140 -103 -308 -228z"/>
<path d="M3936 3378 c-14 -55 -10 -61 42 -53 26 4 51 10 55 14 7 7 -70 61 -86
61 -3 0 -7 -10 -11 -22z"/>
</g>
</svg>
